solid
facet normal 0.000 -1.000 0.000
outer loop
vertex 0.000 0.000 0.000
vertex 1.000 0.000 0.000
vertex 1.000 0.000 1.000
endloop
endfacet
facet normal 0.000 -1.000 0.000
outer loop
vertex 0.000 0.000 0.000
vertex 1.000 0.000 1.000
vertex 0.000 0.000 1.000
endloop
endfacet
facet normal 1.000 0.000 0.000
outer loop
vertex 1.000 0.000 0.000
vertex 1.000 1.000 0.000
vertex 1.000 1.000 1.000
endloop
endfacet
facet normal 1.000 0.000 0.000
outer loop
vertex 1.000 0.000 0.000
vertex 1.000 1.000 1.000
vertex 1.000 0.000 1.000
endloop
endfacet
facet normal 0.000 1.000 0.000
outer loop
vertex 1.000 1.000 0.000
vertex 0.000 1.000 0.000
vertex 0.000 1.000 1.000
endloop
endfacet
facet normal 0.000 1.000 -0.000
outer loop
vertex 1.000 1.000 0.000
vertex 0.000 1.000 1.000
vertex 1.000 1.000 1.000
endloop
endfacet
facet normal -1.000 0.000 0.000
outer loop
vertex 0.000 1.000 0.000
vertex 0.000 0.000 0.000
vertex 0.000 0.000 1.000
endloop
endfacet
facet normal -1.000 0.000 0.000
outer loop
vertex 0.000 1.000 0.000
vertex 0.000 0.000 1.000
vertex 0.000 1.000 1.000
endloop
endfacet
facet normal 0.000 -0.707 0.707
outer loop
vertex 0.000 0.000 1.000
vertex 1.000 0.000 1.000
vertex 0.500 0.500 1.500
endloop
endfacet
facet normal 0.707 -0.000 0.707
outer loop
vertex 1.000 0.000 1.000
vertex 1.000 1.000 1.000
vertex 0.500 0.500 1.500
endloop
endfacet
facet normal 0.000 0.707 0.707
outer loop
vertex 1.000 1.000 1.000
vertex 0.000 1.000 1.000
vertex 0.500 0.500 1.500
endloop
endfacet
facet normal -0.707 0.000 0.707
outer loop
vertex 0.000 1.000 1.000
vertex 0.000 0.000 1.000
vertex 0.500 0.500 1.500
endloop
endfacet
facet normal 0.000 0.000 -1.000
outer loop
vertex 0.000 0.000 0.000
vertex 0.000 1.000 0.000
vertex 1.000 1.000 0.000
endloop
endfacet
facet normal 0.000 0.000 -1.000
outer loop
vertex 0.000 0.000 0.000
vertex 1.000 1.000 0.000
vertex 1.000 0.000 0.000
endloop
endfacet
endsolid